<svg width="13" height="16" viewBox="0 0 13 16" fill="none" xmlns="http://www.w3.org/2000/svg">
<path fill-rule="evenodd" clip-rule="evenodd" d="M4 5H5V13H4V5Z" fill="#FF6666"/>
<path fill-rule="evenodd" clip-rule="evenodd" d="M6 5H7V13H6V5Z" fill="#FF6666"/>
<path fill-rule="evenodd" clip-rule="evenodd" d="M8 5H9V13H8V5Z" fill="#FF6666"/>
<path fill-rule="evenodd" clip-rule="evenodd" d="M0 2H13V3H0V2Z" fill="#FF6666"/>
<path fill-rule="evenodd" clip-rule="evenodd" d="M8.96503 2.5H8.03503V1.5C8.03503 1.205 7.79503 0.965004 7.50003 0.965004H5.50003C5.20503 0.965004 4.96503 1.205 4.96503 1.5V2.5H4.03503V1.5C4.03503 0.692004 4.69253 0.0350037 5.50003 0.0350037H7.50003C8.30753 0.0350037 8.96503 0.692004 8.96503 1.5V2.5Z" fill="#FF6666"/>
<path fill-rule="evenodd" clip-rule="evenodd" d="M9.49996 16H3.49996C2.69297 16 1.98646 15.3455 1.92496 14.541L1.00146 2.5385L1.99846 2.4615L2.92196 14.4645C2.94396 14.75 3.21396 15 3.49996 15H9.49996C9.78596 15 10.056 14.75 10.078 14.465L11.0015 2.4615L11.9985 2.5385L11.075 14.541C11.0135 15.3455 10.307 16 9.49996 16Z" fill="#FF6666"/>
</svg>
